<svg width="125" height="117" viewBox="0 0 125 117" fill="none" xmlns="http://www.w3.org/2000/svg">
<path d="M62.1553 116.582C96.4828 116.582 124.311 114.958 124.311 112.954C124.311 110.949 96.4828 109.325 62.1553 109.325C27.8279 109.325 0 110.949 0 112.954C0 114.958 27.8279 116.582 62.1553 116.582Z" fill="#F5F5F5"/>
<path d="M107.674 105.353L107.435 107.074L107.752 107.118L107.991 105.397L107.674 105.353Z" fill="#2A7354"/>
<path d="M108.955 96.1216L107.975 103.17L108.292 103.215L109.273 96.1658L108.955 96.1216Z" fill="#2A7354"/>
<path d="M108.638 92.6357H89.3398L91.3274 106.959C91.5457 108.535 92.3272 109.98 93.5274 111.025C94.7277 112.07 96.2657 112.646 97.8574 112.646H100.121C101.712 112.646 103.25 112.07 104.451 111.025C105.651 109.98 106.432 108.535 106.651 106.959L108.638 92.6357Z" fill="#515B60"/>
<path d="M98.9714 93.7442C104.301 93.7442 108.621 93.2476 108.621 92.635C108.621 92.0225 104.301 91.5259 98.9714 91.5259C93.6423 91.5259 89.3223 92.0225 89.3223 92.635C89.3223 93.2476 93.6423 93.7442 98.9714 93.7442Z" fill="#263238"/>
<path d="M102.03 86.6275C96.3115 85.419 98.5042 73.9746 102.3 65.4443C106.147 56.8145 108.564 55.0353 111.455 55.3046C114.414 55.5835 111.042 65.2936 109.593 71.2882C108.144 77.2829 108.666 88.0316 102.03 86.6275Z" fill="#2A7354"/>
<path opacity="0.4" d="M102.03 86.6275C96.3115 85.419 98.5042 73.9746 102.3 65.4443C106.147 56.8145 108.564 55.0353 111.455 55.3046C114.414 55.5835 111.042 65.2936 109.593 71.2882C108.144 77.2829 108.666 88.0316 102.03 86.6275Z" fill="white"/>
<path d="M101.585 92.9495C101.549 92.9495 101.513 92.9349 101.488 92.9091C101.462 92.8832 101.447 92.8482 101.447 92.8116C101.508 82.6271 104.012 67.6821 108.5 60.0526C108.519 60.0203 108.549 59.9968 108.585 59.9872C108.621 59.9776 108.66 59.9826 108.692 60.0013C108.723 60.0205 108.745 60.0509 108.754 60.0862C108.763 60.1214 108.758 60.1587 108.74 60.1904C104.268 67.7815 101.79 82.6624 101.733 92.8116C101.732 92.8304 101.728 92.8489 101.72 92.8661C101.713 92.8833 101.702 92.8988 101.688 92.9116C101.674 92.9244 101.658 92.9344 101.64 92.9409C101.623 92.9474 101.604 92.9503 101.585 92.9495Z" fill="#263238"/>
<path d="M101.499 76.3315C100.447 77.0689 99.3479 77.1811 98.6779 77.8959C98.2227 81.9159 98.8093 85.2113 101.121 86.3301C101.986 85.4582 102.159 79.6655 101.499 76.3315Z" fill="#263238"/>
<path d="M101.444 70.2724C101.249 76.4402 103.967 86.8491 97.1837 86.8331C91.3365 86.8331 91.1281 75.1771 93.1092 66.0441C95.116 56.8117 97.8441 52.3237 100.729 51.9967C101.906 51.8653 102.287 53.7534 102.31 56.4654C100.405 56.6225 99.9053 57.0713 99.9053 57.0713C100.713 57.2148 101.513 57.4031 102.3 57.6355C102.226 61.6459 101.55 66.8968 101.444 70.2724Z" fill="#2A7354"/>
<path d="M94.0485 89.1924C97.8248 88.0031 95.6129 80.4312 92.4873 74.927C89.3297 69.3587 87.589 68.3137 85.6559 68.6855C83.7229 69.0574 86.5856 75.3919 87.9512 79.3413C89.3169 83.2907 89.6631 90.5708 94.0485 89.1924Z" fill="#2A7354"/>
<path opacity="0.4" d="M94.0485 89.1924C97.8248 88.0031 95.6129 80.4312 92.4873 74.927C89.3297 69.3587 87.589 68.3137 85.6559 68.6855C83.7229 69.0574 86.5856 75.3919 87.9512 79.3413C89.3169 83.2907 89.6631 90.5708 94.0485 89.1924Z" fill="white"/>
<path d="M94.7431 93.4725C94.7088 93.472 94.676 93.459 94.6506 93.436C94.6253 93.413 94.6091 93.3815 94.6052 93.3475C93.9064 86.5129 91.2713 76.6522 87.7675 71.8437C87.7564 71.8288 87.7485 71.8119 87.7441 71.794C87.7398 71.776 87.7391 71.7573 87.7421 71.7391C87.745 71.7208 87.7517 71.7034 87.7615 71.6878C87.7714 71.6721 87.7843 71.6587 87.7995 71.6481C87.8141 71.6372 87.8308 71.6293 87.8485 71.6249C87.8662 71.6206 87.8846 71.6199 87.9026 71.6229C87.9206 71.6259 87.9377 71.6325 87.9531 71.6424C87.9685 71.6522 87.9816 71.6651 87.9919 71.6802C91.5182 76.54 94.1789 86.4617 94.8809 93.3315C94.8836 93.3495 94.8826 93.3679 94.8778 93.3855C94.873 93.403 94.8646 93.4194 94.8532 93.4336C94.8417 93.4478 94.8274 93.4594 94.8112 93.4678C94.795 93.4761 94.7773 93.481 94.7591 93.4821L94.7431 93.4725Z" fill="#263238"/>
<path d="M98.0195 93.1162C97.9869 93.1168 97.9553 93.1058 97.93 93.0853C97.9048 93.0648 97.8877 93.036 97.8816 93.004C95.8556 83.0247 95.2337 67.8873 98.074 59.4948C98.0863 59.4603 98.1117 59.432 98.1446 59.4158C98.1775 59.3996 98.2154 59.3969 98.2503 59.4083C98.2676 59.414 98.2836 59.4232 98.2974 59.4352C98.3112 59.4472 98.3224 59.4619 98.3305 59.4783C98.3385 59.4947 98.3432 59.5125 98.3443 59.5308C98.3454 59.549 98.3429 59.5673 98.3368 59.5846C95.5126 67.9194 96.1345 83.0022 98.1541 92.9495C98.1578 92.9674 98.158 92.9859 98.1545 93.0038C98.151 93.0218 98.144 93.0389 98.1339 93.0541C98.1237 93.0693 98.1106 93.0823 98.0954 93.0925C98.0802 93.1026 98.0631 93.1096 98.0451 93.113L98.0195 93.1162Z" fill="#263238"/>
<path d="M105.81 66.666C105.786 66.6654 105.762 66.6589 105.741 66.6472C105.72 66.6355 105.702 66.6188 105.688 66.5986C105.67 66.5665 105.665 66.5287 105.674 66.4929C105.683 66.4571 105.705 66.4261 105.737 66.4063C107.147 65.5664 109.179 65.4959 109.263 65.4927C109.296 65.4977 109.327 65.5146 109.349 65.5402C109.371 65.5658 109.383 65.5984 109.383 65.6321C109.383 65.6659 109.371 65.6985 109.349 65.7241C109.327 65.7496 109.296 65.7665 109.263 65.7716C109.244 65.7716 107.218 65.8421 105.871 66.6467C105.853 66.6575 105.832 66.6641 105.81 66.666Z" fill="#263238"/>
<path d="M103.675 74.5812C103.646 74.5807 103.618 74.5712 103.594 74.5539C103.571 74.5367 103.553 74.5126 103.544 74.485C103.216 73.538 103 72.5556 102.902 71.5582C102.902 71.5401 102.904 71.522 102.911 71.5049C102.917 71.4879 102.926 71.4722 102.938 71.4588C102.951 71.4454 102.965 71.4345 102.982 71.4268C102.998 71.4191 103.016 71.4147 103.034 71.4139C103.052 71.4126 103.07 71.415 103.088 71.421C103.105 71.427 103.121 71.4364 103.134 71.4487C103.148 71.461 103.159 71.4759 103.166 71.4925C103.174 71.5091 103.178 71.5271 103.178 71.5454C103.283 72.5165 103.499 73.4726 103.819 74.3952C103.831 74.4301 103.828 74.468 103.812 74.5009C103.796 74.5338 103.767 74.5592 103.733 74.5715L103.675 74.5812Z" fill="#263238"/>
<path d="M18.0568 26.8101H17.0342V112.165H18.0568V26.8101Z" fill="#263238"/>
<path d="M17.0666 55.517C16.8858 55.5162 16.7126 55.444 16.5847 55.3161C16.4568 55.1882 16.3846 55.015 16.3838 54.8342C16.3838 54.6531 16.4557 54.4794 16.5838 54.3514C16.7118 54.2233 16.8855 54.1514 17.0666 54.1514C17.1565 54.151 17.2457 54.1683 17.3289 54.2024C17.4121 54.2366 17.4878 54.2868 17.5515 54.3502C17.6152 54.4137 17.6658 54.4891 17.7003 54.5721C17.7349 54.6552 17.7526 54.7443 17.7526 54.8342C17.7518 55.0156 17.6791 55.1892 17.5506 55.3172C17.422 55.4452 17.248 55.517 17.0666 55.517Z" fill="#407BFF"/>
<path d="M21.4784 112.646H13.6084C13.6084 112.391 13.7097 112.147 13.8901 111.966C14.0704 111.786 14.315 111.685 14.5701 111.685H20.5135C20.7685 111.685 21.0132 111.786 21.1935 111.966C21.3739 112.147 21.4752 112.391 21.4752 112.646H21.4784Z" fill="#263238"/>
<path d="M24.8889 45.964H10.2004C10.0159 45.9618 9.83414 45.9198 9.66742 45.8409C9.50069 45.762 9.35295 45.6481 9.23428 45.5069C9.1156 45.3657 9.02878 45.2006 8.97974 45.0228C8.9307 44.845 8.9206 44.6587 8.95013 44.4766L11.7134 28.5122C11.7665 28.2178 11.9209 27.9512 12.1498 27.7586C12.3787 27.566 12.6677 27.4595 12.9669 27.4575H22.1224C22.4209 27.4602 22.7092 27.5671 22.9375 27.7596C23.1657 27.9522 23.3196 28.2183 23.3726 28.5122L26.1391 44.4766C26.1686 44.6587 26.1585 44.845 26.1095 45.0228C26.0604 45.2006 25.9736 45.3657 25.855 45.5069C25.7363 45.6481 25.5885 45.762 25.4218 45.8409C25.2551 45.9198 25.0733 45.9618 24.8889 45.964Z" fill="#F9C35C"/>
<path opacity="0.6" d="M24.8889 45.964H10.2004C10.0159 45.9618 9.83414 45.9198 9.66742 45.8409C9.50069 45.762 9.35295 45.6481 9.23428 45.5069C9.1156 45.3657 9.02878 45.2006 8.97974 45.0228C8.9307 44.845 8.9206 44.6587 8.95013 44.4766L11.7134 28.5122C11.7665 28.2178 11.9209 27.9512 12.1498 27.7586C12.3787 27.566 12.6677 27.4595 12.9669 27.4575H22.1224C22.4209 27.4602 22.7092 27.5671 22.9375 27.7596C23.1657 27.9522 23.3196 28.2183 23.3726 28.5122L26.1391 44.4766C26.1686 44.6587 26.1585 44.845 26.1095 45.0228C26.0604 45.2006 25.9736 45.3657 25.855 45.5069C25.7363 45.6481 25.5885 45.762 25.4218 45.8409C25.2551 45.9198 25.0733 45.9618 24.8889 45.964Z" fill="white"/>
<path d="M64.4381 0.555135L64.8965 0.202506C65.0938 0.0519049 65.3406 -0.0188556 65.5878 0.00431285C65.8349 0.0274813 66.0642 0.142881 66.2301 0.327531L67.0219 1.20589C67.1549 1.35472 67.2398 1.54025 67.2656 1.73817C67.2913 1.93609 67.2567 2.13717 67.1662 2.31506L66.9642 2.73822C66.8263 3.00607 66.6253 3.23628 66.3784 3.40888C66.1315 3.58149 65.8462 3.69129 65.5473 3.72878L64.265 3.89227C63.9308 3.93489 63.5912 3.90169 63.2716 3.79514C62.9519 3.68859 62.6603 3.51142 62.4185 3.27677L62.1172 2.98826C62.6974 1.60019 64.4381 0.555135 64.4381 0.555135Z" fill="#FFC3BD"/>
<path d="M49.377 21.2478L49.3994 20.8086L49.425 20.4079C49.4475 20.145 49.4763 19.8822 49.5052 19.6225C49.5629 19.1032 49.643 18.5903 49.7296 18.0742C49.908 17.0457 50.1434 16.0279 50.4348 15.0255C50.7265 14.0087 51.0863 13.0127 51.512 12.0442C51.9395 11.0504 52.4511 10.0949 53.0411 9.18796C53.2362 8.89106 53.456 8.61117 53.6982 8.35127C53.9034 8.12367 54.1054 7.93132 54.3073 7.74219C54.7048 7.37353 55.1023 7.03693 55.4966 6.71316C56.2884 6.07202 57.0995 5.47896 57.9073 4.90194C59.524 3.76226 61.1974 2.70517 62.921 1.7347C63.1567 1.60265 63.4324 1.56089 63.6967 1.61722C63.9609 1.67356 64.1956 1.82413 64.357 2.04083C64.5183 2.25754 64.5953 2.52555 64.5735 2.79485C64.5517 3.06414 64.4327 3.3163 64.2386 3.50425C62.8505 4.85065 61.4208 6.16819 60.0391 7.48573C59.3467 8.12687 58.6671 8.80969 58.0163 9.46685C57.6957 9.78743 57.3752 10.1272 57.0995 10.451C56.9648 10.6113 56.8302 10.7716 56.7212 10.9158C56.6388 11.0157 56.5658 11.1231 56.5032 11.2364C55.7094 12.7998 55.1067 14.453 54.708 16.1604C54.4965 17.0291 54.3169 17.9139 54.1727 18.8051C54.099 19.2507 54.038 19.6962 53.9803 20.1418L53.9034 20.8086L53.8681 21.1292L53.8425 21.4209V21.5331C53.7868 22.1121 53.5068 22.6464 53.0625 23.0217C52.6181 23.3971 52.0446 23.5838 51.4644 23.5419C50.8843 23.5 50.3435 23.233 49.9576 22.7977C49.5718 22.3624 49.3714 21.7935 49.3994 21.2125L49.377 21.2478Z" fill="#FFC3BD"/>
<path d="M69.2562 10.6148C74.7315 15.2343 67.5091 19.5267 72.6029 24.4731C77.6968 29.4195 81.5116 32.9842 77.3345 37.9595C73.9718 41.9634 64.0501 43.9894 56.7123 37.485C49.3744 30.9807 60.7771 26.3356 55.5101 22.4503C50.2432 18.565 56.9206 9.91921 58.8441 9.14343C58.6966 4.93755 67.4514 4.36694 69.2562 10.6148Z" fill="#263238"/>
<path d="M82.2424 36.8662C82.2191 36.8706 82.1952 36.8706 82.1719 36.8662C78.8123 35.2633 78.2513 32.7404 77.7096 30.2945C77.1934 27.9703 76.6645 25.5661 73.8146 23.742C69.6184 21.0556 70.4807 18.5937 71.2501 16.4202C71.9714 14.3589 72.5965 12.5734 69.0317 10.807C68.9932 10.7877 68.9638 10.754 68.95 10.7132C68.9362 10.6724 68.9391 10.6277 68.958 10.589C68.9785 10.5508 69.0128 10.5219 69.054 10.5082C69.0951 10.4945 69.1399 10.4971 69.1792 10.5153C73.0004 12.4163 72.3016 14.4134 71.561 16.5292C70.8205 18.645 70.0223 20.9178 74.0006 23.4663C76.9626 25.3641 77.5108 27.8325 78.0398 30.2239C78.5879 32.702 79.1073 35.0325 82.3226 36.568C82.3617 36.5867 82.3918 36.6202 82.4062 36.6611C82.4206 36.702 82.4182 36.7469 82.3995 36.786C82.384 36.8133 82.3609 36.8354 82.333 36.8496C82.3051 36.8639 82.2736 36.8696 82.2424 36.8662Z" fill="#263238"/>
<path d="M44.1006 36.1289C44.1006 36.1289 39.5453 50.1603 36.9294 60.2069C36.6087 61.442 36.4514 62.7137 36.4614 63.9897C36.5608 74.3248 36.782 94.899 36.782 94.899L39.2407 95.2356C39.2407 95.2356 45.2803 72.7957 43.7832 64.3711C52.3104 49.1793 54.8621 41.351 54.8621 41.351L44.1006 36.1289Z" fill="#263238"/>
<path opacity="0.2" d="M48.1178 47.897L50.4772 51.5803C49.5091 53.6042 48.3401 55.9198 46.9702 58.5271C47.1466 55.4699 46.8656 52.4035 46.1367 49.4293L48.1178 47.897Z" fill="black"/>
<path d="M45.6465 44.5952C44.5373 46.6821 45.031 49.0511 46.1241 51.1444C48.2142 55.142 53.0388 61.8034 55.3982 67.9904C57.4018 73.2478 78.3158 82.8264 80.6431 84.7562L82.3517 83.0636C82.3517 83.0636 68.2467 66.8524 62.3001 65.8298C60.5722 45.5922 54.5807 40.213 54.5807 40.213C50.3845 39.4468 47.509 41.0946 45.6465 44.5952Z" fill="#263238"/>
<path d="M83.5281 82.6948C82.7812 82.5089 82.1272 81.8677 80.8834 80.7714C80.8342 80.7261 80.7747 80.6936 80.7101 80.6766C80.6455 80.6596 80.5777 80.6586 80.5126 80.6738C80.4475 80.689 80.3871 80.7198 80.3366 80.7636C80.2862 80.8074 80.2472 80.8629 80.223 80.9252C79.8812 81.855 79.4518 82.7502 78.9408 83.5988C78.8817 83.684 78.8569 83.7884 78.8711 83.8911C78.8854 83.9938 78.9377 84.0874 79.0177 84.1534C81.9573 86.5705 81.5823 87.0706 81.7105 88.0932C81.8804 89.3498 81.3194 91.6772 82.2234 91.4528C83.5057 91.1322 84.2654 89.5037 84.1757 88.1926C84.0987 87.0738 84.2045 85.7306 84.5443 84.8939C84.8393 84.1854 84.5956 82.9641 83.5281 82.6948Z" fill="#407BFF"/>
<path d="M40.1964 96.294C39.8759 95.5406 39.8759 94.9283 40.7927 92.1971C40.8127 92.1403 40.8201 92.0798 40.8142 92.0199C40.8084 91.9599 40.7896 91.902 40.7591 91.8501C40.7285 91.7982 40.6871 91.7536 40.6375 91.7194C40.5879 91.6852 40.5315 91.6622 40.4721 91.6521C39.5649 91.5239 37.6351 91.2803 36.6253 91.3764C36.5703 91.3808 36.5168 91.3962 36.4678 91.4216C36.4189 91.447 36.3755 91.4819 36.3403 91.5243C36.305 91.5668 36.2786 91.6158 36.2626 91.6686C36.2466 91.7213 36.2413 91.7768 36.247 91.8316C36.449 93.8865 35.3462 97.3935 32.9131 99.0252C31.8744 99.7209 32.5765 100.308 33.4869 100.166C34.9744 99.9581 35.9681 99.1663 37.1062 98.5636C37.8306 98.1757 38.616 98.3007 39.4623 98.0251C39.636 97.976 39.7965 97.8886 39.9319 97.7693C40.0673 97.65 40.1742 97.5018 40.2446 97.3356C40.3151 97.1695 40.3474 96.9896 40.339 96.8093C40.3307 96.629 40.282 96.4529 40.1964 96.294Z" fill="#407BFF"/>
<path d="M48.939 21.982C48.4485 23.1201 45.4351 24.8447 46.8841 27.3933C46.0474 29.7719 45.2813 32.1441 44.1016 36.1288L55.4433 41.633C56.5269 38.2093 58.3926 34.6189 63.3839 28.169C63.6564 27.8154 63.8515 27.4084 63.9566 26.9745C64.0618 26.5406 64.0746 26.0895 63.9942 25.6503C63.9138 25.2111 63.742 24.7938 63.49 24.4253C63.2379 24.0568 62.9113 23.7453 62.5311 23.5111C62.1016 23.2451 61.64 22.9726 61.1591 22.7129C59.5051 21.7582 57.7845 20.9236 56.0107 20.2157C55.4305 19.9945 54.8214 19.7861 54.2348 19.597C53.2134 19.2678 52.1062 19.3295 51.1278 19.7702C50.1494 20.2108 49.3694 20.999 48.939 21.982Z" fill="#FF725E"/>
<path d="M56.011 20.2028C54.671 19.6321 53.5298 17.4394 54.0683 15.6475C52.2218 15.7661 50.0452 16.9297 49.2854 18.6224C48.9841 20.3534 48.9648 23.7964 48.9648 23.7964L56.011 20.2028Z" fill="#FF725E"/>
<path d="M88.6027 24.9572L89.0676 24.6142C89.2664 24.4655 89.4019 24.2472 89.4471 24.0031C89.4922 23.7589 89.4437 23.5067 89.3112 23.2966L88.6701 22.2965C88.5635 22.1272 88.4081 21.9942 88.2243 21.9152C88.0406 21.8362 87.8372 21.8149 87.641 21.8541L87.1762 21.9438C86.8807 22.0031 86.6041 22.1337 86.3706 22.3242C86.1371 22.5147 85.9536 22.7594 85.8362 23.037L85.3297 24.2199C85.1975 24.5295 85.1367 24.8648 85.1516 25.2011C85.1666 25.5374 85.2571 25.866 85.4163 26.1625L85.615 26.5312C87.1217 26.3453 88.6027 24.9572 88.6027 24.9572Z" fill="#FFC3BD"/>
<path d="M62.1547 24.2038L68.1558 24.8449C69.1527 24.9443 70.1497 25.0533 71.1371 25.1399L72.6085 25.2553C73.0861 25.2905 73.6119 25.3194 73.9388 25.3162C74.8268 25.2777 75.8623 25.1879 76.84 25.0821L79.8534 24.7616C81.873 24.5468 83.9086 24.332 85.9442 24.1781C86.2157 24.1571 86.4854 24.2363 86.7024 24.4009C86.9194 24.5654 87.0685 24.8038 87.1214 25.0709C87.1743 25.338 87.1275 25.6152 86.9897 25.8501C86.8519 26.0849 86.6327 26.2611 86.3738 26.3452C84.4055 26.9863 82.4275 27.5313 80.4272 28.0282C79.427 28.2782 78.4204 28.509 77.401 28.727C76.3816 28.945 75.375 29.147 74.2306 29.2816C73.5349 29.3457 73.0412 29.3489 72.4995 29.3586C71.9577 29.3682 71.4352 29.3586 70.8966 29.3586C69.8484 29.3361 68.8065 29.2976 67.7711 29.2303C65.6938 29.1021 63.6517 28.9098 61.5873 28.6212C61.0509 28.4937 60.5803 28.1732 60.2651 27.7209C59.95 27.2685 59.8124 26.716 59.8785 26.1687C59.9447 25.6214 60.2101 25.1176 60.624 24.7534C61.0379 24.3892 61.5713 24.1902 62.1226 24.1942L62.1547 24.2038Z" fill="#FFC3BD"/>
<path d="M56.658 38.7771C57.1452 39.0977 55.9848 41.1429 56.4272 41.9828C56.8696 42.8227 57.0683 43.2651 56.6644 43.3805C56.2605 43.4959 48.0859 41.8257 43.6076 38.4373C43.5255 38.3721 43.4606 38.2877 43.4187 38.1916C43.3768 38.0954 43.3591 37.9905 43.3671 37.8859C43.5018 36.11 44.3289 33.7025 44.8418 33.6672C45.3547 33.632 54.8532 37.6102 56.658 38.7771Z" fill="#275743"/>
<path opacity="0.4" d="M56.658 38.7771C57.1452 39.0977 55.9848 41.1429 56.4272 41.9828C56.8696 42.8227 57.0683 43.2651 56.6644 43.3805C56.2605 43.4959 48.0859 41.8257 43.6076 38.4373C43.5255 38.3721 43.4606 38.2877 43.4187 38.1916C43.3768 38.0954 43.3591 37.9905 43.3671 37.8859C43.5018 36.11 44.3289 33.7025 44.8418 33.6672C45.3547 33.632 54.8532 37.6102 56.658 38.7771Z" fill="white"/>
<path d="M63.4637 16.6548C62.3353 18.1518 60.5369 21.0306 61.1588 22.7007C61.1588 22.7007 57.1068 21.4697 53.1445 23.6624C53.3529 20.3734 55.9976 20.1907 55.9976 20.1907C58.0589 20.6427 58.6776 19.2514 58.9789 17.8056L63.4637 16.6548Z" fill="#FFC3BD"/>
<path opacity="0.2" d="M61.64 17.1284L58.9953 17.8176C58.9298 18.1557 58.8343 18.4871 58.71 18.8082C59.4665 19.0486 60.8097 18.7441 61.2457 18.042C61.4317 17.7641 61.5653 17.4544 61.64 17.1284Z" fill="black"/>
<path d="M66.4794 14.8012C64.5239 17.183 63.7802 18.5134 61.5875 18.616C57.8368 18.7891 56.4584 15.7309 57.3913 13.5221C58.5068 10.9127 61.2381 7.33191 64.338 8.07243C67.4379 8.81295 68.4317 12.4194 66.4794 14.8012Z" fill="#FFC3BD"/>
<path d="M61.2256 7.29344C61.3955 9.14313 64.7711 11.7237 65.845 12.3328C64.4217 13.0124 63.7869 16.0482 66.3675 16.3047C68.9481 16.5611 71.2338 6.0913 61.2256 7.29344Z" fill="#263238"/>
<path d="M58.462 13.2432C58.462 13.2432 59.475 13.4708 62.0588 14.6473C61.4177 15.1986 60.5746 15.5064 59.2539 14.8941C57.9331 14.2818 58.462 13.2432 58.462 13.2432Z" fill="#263238"/>
<path d="M60.1361 14.6317C59.6427 14.3758 59.087 14.2646 58.5332 14.3111C58.7135 14.5712 58.9651 14.7738 59.2577 14.8945C59.7499 15.1537 60.3065 15.265 60.8605 15.2151C60.682 14.9533 60.4299 14.7503 60.1361 14.6317Z" fill="#ED847E"/>
<path d="M58.5888 13.2749C58.5753 13.3764 58.5904 13.4796 58.6323 13.5731C58.6742 13.6665 58.7412 13.7464 58.826 13.8038C59.5942 14.1508 60.3871 14.4401 61.1982 14.6694C61.3203 14.7166 61.4518 14.7346 61.5821 14.7218C61.7123 14.709 61.8378 14.6658 61.9484 14.5956C60.8608 14.0772 59.7382 13.6358 58.5888 13.2749Z" fill="white"/>
<path d="M60.6261 11.2554C60.1113 11.5862 59.5537 11.8451 58.9688 12.0247C59.0553 12.4703 59.5907 12.6851 59.5907 12.6851L60.6261 11.2554Z" fill="#ED847E"/>
<path d="M65.7003 17.167C65.4602 17.3069 65.1933 17.3943 64.917 17.4236C64.6408 17.4529 64.3615 17.4233 64.0974 17.3369C63.4306 17.0933 63.5941 16.2855 64.1968 15.7822C64.7386 15.327 65.7355 14.9102 66.2036 15.4328C66.6716 15.9553 66.351 16.808 65.7003 17.167Z" fill="#FFC3BD"/>
<path d="M63.4833 12.4419C63.4754 12.4237 63.4713 12.404 63.4713 12.3842C63.4713 12.3643 63.4754 12.3447 63.4833 12.3265C63.563 12.1577 63.6005 11.9721 63.5927 11.7856C63.5849 11.5991 63.5319 11.4173 63.4384 11.2558C63.4176 11.2233 63.4103 11.184 63.4181 11.1463C63.4259 11.1085 63.4481 11.0753 63.4801 11.0538C63.4957 11.0425 63.5134 11.0345 63.5322 11.0303C63.551 11.0261 63.5705 11.0257 63.5894 11.0293C63.6083 11.033 63.6263 11.0404 63.6422 11.0512C63.6582 11.062 63.6717 11.076 63.682 11.0923C63.8012 11.2931 63.8704 11.5197 63.8838 11.7529C63.8972 11.9861 63.8544 12.219 63.759 12.4322C63.7435 12.4678 63.7146 12.4958 63.6786 12.5102C63.6426 12.5246 63.6024 12.5242 63.5666 12.5092C63.5488 12.5044 63.5322 12.496 63.5178 12.4844C63.5034 12.4728 63.4917 12.4583 63.4833 12.4419Z" fill="#263238"/>
<path d="M62.2777 12.5379C62.2577 12.5185 62.2462 12.492 62.2456 12.4642C62.2494 12.335 62.2223 12.2069 62.1665 12.0903C62.1108 11.9738 62.028 11.8722 61.925 11.7942C61.9032 11.7787 61.8883 11.7552 61.8835 11.7289C61.8787 11.7025 61.8844 11.6753 61.8994 11.6531C61.9065 11.6417 61.9159 11.6319 61.927 11.6242C61.938 11.6165 61.9506 11.6112 61.9637 11.6085C61.9769 11.6058 61.9905 11.6058 62.0037 11.6085C62.0169 11.6112 62.0294 11.6166 62.0404 11.6243C62.1695 11.7221 62.2732 11.8493 62.343 11.9955C62.4127 12.1416 62.4464 12.3023 62.4412 12.4642C62.4403 12.4917 62.4288 12.5178 62.4091 12.5369C62.3893 12.5561 62.3629 12.5668 62.3354 12.5667C62.3135 12.5638 62.2932 12.5537 62.2777 12.5379Z" fill="#263238"/>
<path d="M60.2473 10.7398C60.2334 10.741 60.2194 10.7393 60.2062 10.7349C60.193 10.7305 60.1808 10.7234 60.1704 10.7142C60.0751 10.6286 59.9611 10.5666 59.8375 10.5332C59.7138 10.4998 59.5841 10.4959 59.4587 10.5218C59.4461 10.5258 59.4328 10.5271 59.4196 10.5259C59.4065 10.5246 59.3937 10.5207 59.3821 10.5144C59.3704 10.5082 59.3601 10.4996 59.3518 10.4894C59.3435 10.4791 59.3374 10.4672 59.3337 10.4545C59.3257 10.4286 59.3282 10.4005 59.3409 10.3765C59.3535 10.3525 59.3751 10.3344 59.401 10.3263C59.5589 10.2896 59.7233 10.2918 59.8802 10.3325C60.0371 10.3733 60.1817 10.4514 60.3018 10.5603C60.3208 10.5795 60.3315 10.6054 60.3315 10.6324C60.3315 10.6594 60.3208 10.6853 60.3018 10.7046C60.2874 10.7213 60.2685 10.7335 60.2473 10.7398Z" fill="#263238"/>
<path d="M60.2037 9.19482C60.186 9.18861 60.1698 9.17888 60.156 9.1662C60.1423 9.15352 60.1312 9.13817 60.1236 9.12108C60.1082 9.08528 60.1073 9.04491 60.121 9.00845C60.1348 8.97199 60.1621 8.94227 60.1973 8.92554C60.4071 8.82333 60.6383 8.77317 60.8716 8.77931C61.1049 8.78545 61.3332 8.8477 61.5373 8.9608C61.5703 8.98132 61.5939 9.01406 61.6029 9.05188C61.6119 9.08971 61.6056 9.12956 61.5854 9.16276C61.5642 9.196 61.5309 9.21965 61.4926 9.22863C61.4542 9.23762 61.4139 9.23124 61.3802 9.21085C61.2176 9.12322 61.0363 9.07602 60.8516 9.07323C60.6669 9.07044 60.4843 9.11214 60.3191 9.19482C60.3009 9.20276 60.2813 9.20686 60.2614 9.20686C60.2415 9.20686 60.2219 9.20276 60.2037 9.19482Z" fill="#263238"/>
<path opacity="0.2" d="M51.3967 27.1494C52.0643 28.806 53.2644 30.1933 54.8076 31.0924C52.0507 30.5603 51.307 28.3772 51.3967 27.1494Z" fill="black"/>
<path d="M61.1591 22.6997C62.6465 23.6903 66.7338 24.0589 68.093 24.1551C68.1383 24.1561 68.1824 24.1696 68.2206 24.194C68.2587 24.2185 68.2894 24.2529 68.3093 24.2937C68.3292 24.3344 68.3374 24.3798 68.3332 24.4249C68.329 24.47 68.3124 24.5131 68.2853 24.5494C67.6698 25.1905 65.6599 28.0308 65.5797 29.4541C65.5715 29.5971 65.517 29.7335 65.4245 29.8427C65.332 29.952 65.2064 30.0283 65.0668 30.06C61.1174 30.9223 59.3158 30.4543 58.5753 29.4349C57.7995 28.3674 61.1591 22.6997 61.1591 22.6997Z" fill="#FF725E"/>
</svg>
